<?xml version="1.0" encoding="UTF-8"?>
<svg id="Layer_1" xmlns="http://www.w3.org/2000/svg" xmlns:xlink="http://www.w3.org/1999/xlink" version="1.1" viewBox="0 0 800 800">
  <!-- Generator: Adobe Illustrator 29.0.1, SVG Export Plug-In . SVG Version: 2.1.0 Build 192)  -->
  <defs>
    <style>
      .st0 {
        fill: none;
      }

      .st1 {
        fill: #ccc;
      }

      .st2 {
        fill: #6d6d6d;
      }

      .st2, .st3, .st4, .st5 {
        fill-rule: evenodd;
      }

      .st6 {
        isolation: isolate;
      }

      .st7 {
        clip-path: url(#clippath-11);
      }

      .st8 {
        clip-path: url(#clippath-10);
      }

      .st9 {
        clip-path: url(#clippath-15);
      }

      .st10 {
        clip-path: url(#clippath-13);
      }

      .st11 {
        clip-path: url(#clippath-14);
      }

      .st12 {
        clip-path: url(#clippath-12);
      }

      .st3 {
        fill: #9e9e9e;
      }

      .st13 {
        clip-path: url(#clippath-1);
      }

      .st14 {
        clip-path: url(#clippath-3);
      }

      .st15 {
        clip-path: url(#clippath-4);
      }

      .st16 {
        clip-path: url(#clippath-2);
      }

      .st17 {
        clip-path: url(#clippath-7);
      }

      .st18 {
        clip-path: url(#clippath-6);
      }

      .st19 {
        clip-path: url(#clippath-9);
      }

      .st20 {
        clip-path: url(#clippath-8);
      }

      .st21 {
        clip-path: url(#clippath-5);
      }

      .st22 {
        fill: #fff;
      }

      .st4 {
        fill: #eee;
      }

      .st5 {
        fill: #828282;
      }

      .st23 {
        clip-path: url(#clippath);
      }
    </style>
    <clipPath id="clippath">
      <path class="st0" d="M308.6,221.4v-.7c0,.3.2.7.5.9v.7c-.4-.3-.5-.6-.5-.9Z"/>
    </clipPath>
    <clipPath id="clippath-1">
      <path class="st0" d="M324.4,233.2v.7c0-.3-.2-.7-.5-.9v-.7c.4.3.5.6.5.9Z"/>
    </clipPath>
    <clipPath id="clippath-2">
      <path class="st0" d="M341,250.1v-.7c0-3.5,1.7-7.1,5.5-10.1.5-.4,1-.7,1.5-1.1,12.4-8.4,33.9-4.5,38.3,7.7v.7c-4.5-12.2-25.9-16.1-38.4-7.7-.5.3-1,.7-1.5,1.1-3.7,3-5.4,6.6-5.5,10.1Z"/>
    </clipPath>
    <clipPath id="clippath-3">
      <path class="st0" d="M433,250.4v.7c.1-11.9-6.7-24.2-18.3-33-.3-.3-.5-.6-.5-.9v-.7c0,.3.2.7.5.9,11.6,8.8,18.4,21.1,18.3,33Z"/>
    </clipPath>
    <clipPath id="clippath-4">
      <path class="st0" d="M387,250.1v.7c0-1.4-.2-2.8-.8-4.2v-.7c.5,1.4.8,2.8.8,4.2Z"/>
    </clipPath>
    <clipPath id="clippath-5">
      <path class="st0" d="M455.9,250.7v.7c0,4-.6,8.1-1.8,12,0,0,0,.2,0,.3v-.7c0,0,0-.2,0-.3,1.2-4,1.8-8,1.8-12Z"/>
    </clipPath>
    <clipPath id="clippath-6">
      <path class="st0" d="M423.1,274.2v.7c0-.6-.5-1.1-1.3-1.3v-.7c.8.2,1.3.7,1.3,1.3Z"/>
    </clipPath>
    <clipPath id="clippath-7">
      <path class="st0" d="M388.7,278.5v-.7c0-.4.2-.7.6-1s.2,0,.2-.1c2.3-1.1,4.6-2.4,6.6-3.7s3.6-2.7,5.2-4.2c0,0,.2-.1.2-.2.5-.4,1.3-.5,2-.3v.7c-.7-.2-1.5,0-2,.3s-.2.1-.2.2c-1.5,1.5-3.3,2.9-5.2,4.2s-4.3,2.6-6.6,3.7c0,0-.2,0-.2.1-.4.3-.6.6-.6,1Z"/>
    </clipPath>
    <clipPath id="clippath-8">
      <path class="st0" d="M447.7,279.3v.7c-.7-.2-1.5,0-2,.3v-.7c.5-.3,1.3-.5,2-.3Z"/>
    </clipPath>
    <clipPath id="clippath-9">
      <path class="st0" d="M318.3,249.8v-.7c-.1,15.5,16.1,30.3,40.7,32.5,2.1.2,4.2.1,6.2.3.8,0,1.4.4,1.7.9v.7c-.2-.5-.9-.9-1.7-.9-2-.1-4.2,0-6.2-.3-24.6-2.2-40.8-17-40.7-32.5Z"/>
    </clipPath>
    <clipPath id="clippath-10">
      <path class="st0" d="M536.9,285.8v.7c0,.1,0,.3-.1.4v-.7c0-.1.1-.3.1-.4Z"/>
    </clipPath>
    <clipPath id="clippath-11">
      <path class="st0" d="M530.5,298.7v.7c-.1.2-.3.4-.5.5-.5.3-1.3.5-2,.3v-.7c.7.2,1.5,0,2-.3s.4-.3.5-.5Z"/>
    </clipPath>
    <clipPath id="clippath-12">
      <path class="st0" d="M445.7,279.6v.7c-5.3,6.4-11.2,11.8-18.2,16.5s-14.8,8.6-23.8,11.9v-.7c8.9-3.2,16.8-7.2,23.8-11.9s12.9-10.1,18.2-16.5Z"/>
    </clipPath>
    <clipPath id="clippath-13">
      <path class="st0" d="M402.8,309.9v-.7c0-.4.3-.8,1-1.2v.7c-.7.4-1,.8-1,1.2Z"/>
    </clipPath>
    <clipPath id="clippath-14">
      <path class="st0" d="M428.7,366.8v.7c0,.4-.2.7-.6.9s-.5.2-.8.3v-.7c.3,0,.6-.2.8-.3.4-.2.6-.6.6-.9Z"/>
    </clipPath>
    <clipPath id="clippath-15">
      <path class="st0" d="M409.1,372v.7c-1,.2-2.1-.2-2.4-.9v-.7c.3.7,1.4,1.1,2.4.9Z"/>
    </clipPath>
  </defs>
  <g>
    <path class="st2" d="M485.9,275c-50.8-38.1-120.7-38.1-171.6,0l-228.3,171.4c-.2.2-.4.3-.6.5h-31.9v61.5c-1,25.6,9.8,51.6,32.6,68.7l228.3,171.4c50.8,38.2,120.7,38.2,171.6,0l228.3-171.4c22.8-17.1,33.6-43.2,32.6-68.8v-61.3h-31.9c-.2-.2-.4-.3-.6-.5l-228.3-171.4Z"/>
    <path class="st5" d="M485.9,205c-50.8-38.1-120.7-38.1-171.6,0l-228.3,171.4c-.2.2-.4.3-.6.5h-31.9v61.5c-1,25.6,9.8,51.6,32.6,68.7l228.3,171.4c50.8,38.2,120.7,38.2,171.6,0l228.3-171.4c22.8-17.1,33.6-43.2,32.6-68.8v-61.3h-31.9c-.2-.2-.4-.3-.6-.5l-228.3-171.4Z"/>
    <path class="st3" d="M485.9,132.2c-50.8-38.1-120.7-38.1-171.6,0l-228.3,171.4c-.2.2-.4.3-.6.5h-31.9v61.5c-1,25.6,9.8,51.6,32.6,68.7l228.3,171.4c50.8,38.2,120.7,38.2,171.6,0l228.3-171.4c22.8-17.1,33.6-43.2,32.6-68.8v-61.3h-31.9c-.2-.2-.4-.3-.6-.5l-228.3-171.4Z"/>
    <path class="st1" d="M314.3,64.4c50.8-38.1,120.7-38.1,171.6,0l228.3,171.4c43.5,32.7,43.5,97.9,0,130.6l-228.3,171.4c-50.8,38.2-120.7,38.2-171.6,0l-228.3-171.4c-43.5-32.7-43.5-97.9,0-130.6l228.3-171.4Z"/>
    <path class="st4" d="M446.2,189.8c-27.3-20.5-64.9-20.5-92.2,0l-122.7,92.1c-.1,0-.2.2-.3.3h-17.2v33c-.6,13.7,5.3,27.7,17.5,36.9l122.7,92.1c27.3,20.5,64.9,20.5,92.2,0l122.7-92.1c12.2-9.2,18.1-23.2,17.5-36.9v-33h-17.1c-.1,0-.2-.2-.3-.3l-122.7-92.1Z"/>
    <path class="st22" d="M354,153.4c27.3-20.5,64.9-20.5,92.2,0l122.7,92.1c23.4,17.5,23.4,52.6,0,70.2l-122.7,92.1c-27.3,20.5-64.9,20.5-92.2,0l-122.7-92.1c-23.4-17.5-23.4-52.6,0-70.2l122.7-92.1Z"/>
  </g>
  <g class="st6">
    <g class="st6">
      <g class="st23">
        <g class="st6">
          <path d="M309.2,221.6v.7c-.4-.3-.5-.6-.5-.9v-.7c0,.3.2.7.5.9"/>
        </g>
      </g>
    </g>
    <polygon points="323.8 232.2 323.8 233 309.2 222.3 309.2 221.6 323.8 232.2"/>
    <g class="st6">
      <g class="st13">
        <g class="st6">
          <path d="M324.4,233.2v.7c0-.3-.2-.7-.5-.9v-.7c.4.3.5.6.5.9"/>
        </g>
      </g>
    </g>
    <g class="st6">
      <g class="st16">
        <g class="st6">
          <path d="M386.3,245.9v.7c-2-5.3-7.1-9-13.3-10.9v-.7c6.2,1.8,11.3,5.6,13.3,10.9"/>
          <path d="M373,235v.7c-1.3-.4-2.5-.7-3.9-.9v-.7c1.3.2,2.6.5,3.9.9"/>
          <path d="M369.1,234.2v.7c-1.1-.2-2.3-.3-3.4-.4v-.7c1.1,0,2.3.2,3.4.4"/>
          <path d="M365.8,233.8v.7c-1.1,0-2.1,0-3.2,0v-.7c1.1,0,2.2,0,3.2,0"/>
          <path d="M362.5,233.7v.7c-1.1,0-2.2.1-3.2.3v-.7c1.1-.1,2.2-.2,3.2-.3"/>
          <path d="M359.3,234v.7c-1.2.2-2.3.4-3.5.7v-.7c1.1-.3,2.3-.5,3.5-.7"/>
          <path d="M355.8,234.7v.7c-1.6.4-3.2,1-4.6,1.6v-.7c1.5-.7,3-1.2,4.6-1.6"/>
          <path d="M351.2,236.3v.7c-1.2.5-2.3,1.2-3.3,1.9-.5.3-1,.7-1.5,1.1-.8.6-1.4,1.3-2,1.9v-.7c.6-.7,1.3-1.3,2-1.9.5-.4,1-.7,1.5-1.1,1-.7,2.1-1.3,3.3-1.9"/>
          <path d="M344.4,241.2v.7c-.9,1-1.7,2.1-2.2,3.2v-.7c.5-1.1,1.3-2.2,2.2-3.2"/>
          <path d="M342.2,244.4v.7c-.4.8-.7,1.6-.9,2.4v-.7c.2-.8.5-1.6.9-2.4"/>
          <path d="M341.3,246.7v.7c-.2.7-.3,1.5-.3,2.2v-.7c0-.7.2-1.5.3-2.2"/>
          <path d="M341,249v.7c0,.1,0,.3,0,.4v-.7c0-.1,0-.3,0-.4"/>
        </g>
      </g>
    </g>
    <g class="st6">
      <g class="st14">
        <g class="st6">
          <path d="M433,250.4v.7c.1-11.9-6.7-24.2-18.3-33-.3-.3-.5-.6-.5-.9v-.7c0,.3.2.7.5.9,11.6,8.8,18.4,21.1,18.3,33"/>
        </g>
      </g>
    </g>
    <g class="st6">
      <g class="st15">
        <g class="st6">
          <path d="M387,250.1v.7c0-1.4-.2-2.8-.8-4.2v-.7c.5,1.4.8,2.8.8,4.2"/>
        </g>
      </g>
    </g>
    <g class="st6">
      <g class="st21">
        <g class="st6">
          <path d="M455.9,250.7v.7c0,.6,0,1.1,0,1.7v-.7c0-.6,0-1.1,0-1.7"/>
          <path d="M455.9,252.4v.7c-.1,2.8-.5,5.6-1.2,8.3v-.7c.7-2.8,1.1-5.5,1.2-8.3"/>
          <path d="M454.6,260.7v.7c-.2.7-.4,1.4-.6,2,0,0,0,0,0,0v-.7s0,0,0,0c.2-.7.4-1.3.6-2"/>
          <path d="M454.1,262.8v.7c0,0,0,.1,0,.2v-.7c0,0,0-.1,0-.2"/>
          <path d="M454,263v.7s0,0,0,0v-.7s0,0,0,0"/>
        </g>
      </g>
    </g>
    <polygon points="421.8 272.9 421.8 273.6 403.5 269 403.5 268.3 421.8 272.9"/>
    <g class="st6">
      <g class="st18">
        <g class="st6">
          <path d="M423.1,274.2v.7c0-.5-.4-1-1.2-1.2v-.7c.7.2,1.2.7,1.2,1.2"/>
          <path d="M421.9,272.9v.7s0,0-.1,0v-.7s0,0,.1,0"/>
        </g>
      </g>
    </g>
    <g class="st6">
      <g class="st17">
        <g class="st6">
          <path d="M403.5,268.3v.7c0,0-.1,0-.2,0v-.7c0,0,.1,0,.2,0"/>
          <path d="M403.3,268.2v.7c0,0-.2,0-.3,0v-.7c0,0,.2,0,.3,0"/>
          <path d="M403,268.2v.7c0,0-.2,0-.3,0v-.7c0,0,.2,0,.3,0"/>
          <path d="M402.8,268.2v.7c0,0-.2,0-.3,0v-.7c0,0,.2,0,.3,0"/>
          <path d="M402.5,268.2v.7c-.1,0-.2,0-.3,0v-.7c.1,0,.2,0,.3,0"/>
          <path d="M402.2,268.3v.7c-.1,0-.3,0-.4.1v-.7c.1,0,.3-.1.4-.1"/>
          <path d="M401.8,268.4v.7c-.1,0-.2.1-.3.2s-.2.1-.2.2c-1.5,1.5-3.3,2.9-5.2,4.2s-4.3,2.6-6.6,3.7c0,0-.2,0-.2.1-.1,0-.2.2-.3.3v-.7c0,0,.2-.2.3-.3s.2,0,.2-.1c2.3-1.1,4.6-2.4,6.6-3.7s3.6-2.7,5.2-4.2c0,0,.2-.1.2-.2s.2-.1.3-.2"/>
          <path d="M389,277.1v.7c0,0-.1.2-.2.3v-.7c0,0,.1-.2.2-.3"/>
          <path d="M388.8,277.4v.7c0,0,0,.1,0,.2v-.7c0,0,0-.1,0-.2"/>
          <path d="M388.7,277.6v.7c0,0,0,.1,0,.2v-.7c0,0,0-.1,0-.2"/>
          <path d="M388.7,277.8v.7s0,0,0,0v-.7s0,0,0,0"/>
        </g>
      </g>
    </g>
    <g class="st6">
      <g class="st20">
        <g class="st6">
          <path d="M447.7,279.3v.7c0,0-.1,0-.2,0v-.7c0,0,.1,0,.2,0"/>
          <path d="M447.5,279.3v.7c0,0-.2,0-.3,0v-.7c0,0,.2,0,.3,0"/>
          <path d="M447.2,279.3v.7c0,0-.2,0-.3,0v-.7c0,0,.2,0,.3,0"/>
          <path d="M446.9,279.3v.7c0,0-.2,0-.3,0v-.7c0,0,.2,0,.3,0"/>
          <path d="M446.7,279.3v.7c-.1,0-.2,0-.3,0v-.7c.1,0,.2,0,.3,0"/>
          <path d="M446.4,279.3v.7c-.1,0-.3,0-.4.1v-.7c.1,0,.3-.1.4-.1"/>
          <path d="M446,279.5v.7c-.1,0-.2,0-.3.2v-.7c0,0,.2-.1.3-.2"/>
        </g>
      </g>
    </g>
    <g class="st6">
      <g class="st19">
        <g class="st6">
          <path d="M366.9,282.8v.7c-.2-.4-.6-.7-1.1-.8v-.7c.5.2.9.5,1.1.8"/>
          <path d="M365.8,282v.7c-.1,0-.2,0-.3,0v-.7c.1,0,.2,0,.3,0"/>
          <path d="M365.5,281.9v.7c0,0-.2,0-.3,0,0,0-.2,0-.3,0v-.7c0,0,.2,0,.3,0,0,0,.2,0,.3,0"/>
          <path d="M364.9,281.9v.7c-1.7-.1-3.4,0-5.1-.2v-.7c1.7.1,3.5,0,5.1.2"/>
          <path d="M359.8,281.7v.7c-.3,0-.6,0-.9,0-1.7-.1-3.3-.4-4.9-.6v-.7c1.6.3,3.2.5,4.9.6.3,0,.6,0,.9,0"/>
          <path d="M354.1,281v.7c-2.7-.4-5.2-1-7.6-1.7v-.7c2.4.7,4.9,1.3,7.6,1.7"/>
          <path d="M346.5,279.3v.7c-17.4-5.2-28.3-17.4-28.2-30.2v-.7c-.1,12.7,10.8,25,28.2,30.2"/>
        </g>
      </g>
    </g>
    <g class="st6">
      <g class="st8">
        <g class="st6">
          <path d="M536.9,285.8v.7s0,0,0,0v-.7s0,0,0,0"/>
          <path d="M536.9,285.9v.7c0,0,0,.1,0,.2v-.7c0,0,0-.1,0-.2"/>
          <path d="M536.8,286.1v.7c0,0,0,.1,0,.2v-.7c0,0,0-.1,0-.2"/>
          <polyline points="536.8 286.3 536.8 287 536.8 287 536.8 286.3 536.8 286.3"/>
        </g>
      </g>
    </g>
    <polygon points="536.8 286.3 536.8 287 530.5 299.5 530.5 298.7 536.8 286.3"/>
    <polygon points="528 299.5 528 300.3 447.7 280.1 447.7 279.3 528 299.5"/>
    <g class="st6">
      <g class="st7">
        <g class="st6">
          <path d="M530.5,298.7v.7c0,0-.1.2-.2.3v-.7c0,0,.1-.2.2-.3"/>
          <path d="M530.3,299v.7c0,0-.2.2-.3.3s-.2.1-.3.2v-.7c.1,0,.2,0,.3-.2s.2-.2.3-.3"/>
          <path d="M529.7,299.4v.7c-.1,0-.3.1-.4.1v-.7c.1,0,.3,0,.4-.1"/>
          <path d="M529.3,299.5v.7c-.1,0-.2,0-.3,0v-.7c.1,0,.2,0,.3,0"/>
          <path d="M529,299.6v.7c0,0-.2,0-.3,0v-.7c0,0,.2,0,.3,0"/>
          <path d="M528.8,299.6v.7c0,0-.2,0-.3,0v-.7c0,0,.2,0,.3,0"/>
          <path d="M528.5,299.6v.7c0,0-.2,0-.3,0v-.7c0,0,.2,0,.3,0"/>
          <path d="M528.2,299.6v.7c0,0-.1,0-.2,0v-.7c0,0,.1,0,.2,0"/>
        </g>
      </g>
    </g>
    <g class="st6">
      <g class="st12">
        <g class="st6">
          <path d="M445.7,279.6v.7c-.8.9-1.5,1.8-2.3,2.7v-.7c.8-.9,1.5-1.7,2.3-2.7"/>
          <path d="M443.4,282.3v.7c-4.7,5.3-9.9,9.8-15.9,13.8-4.5,3-9.4,5.8-14.7,8.2v-.7c5.3-2.4,10.2-5.2,14.7-8.2s11.2-8.6,15.9-13.8"/>
          <path d="M412.8,304.3v.7c-2.9,1.3-5.9,2.5-9,3.7v-.7c3.1-1.1,6.2-2.4,9-3.7"/>
        </g>
      </g>
    </g>
    <g class="st6">
      <g class="st10">
        <g class="st6">
          <path d="M403.8,308v.7c-.3.2-.6.4-.7.6v-.7c.2-.2.4-.4.7-.6"/>
          <path d="M403.1,308.6v.7c0,0-.2.2-.2.3v-.7c0,0,.1-.2.2-.3"/>
          <path d="M402.9,308.8v.7c0,0,0,.1,0,.2v-.7c0,0,0-.1,0-.2"/>
          <path d="M402.8,309v.7c0,0,0,.1,0,.2v-.7c0,0,0-.1,0-.2"/>
          <path d="M402.8,309.2v.7s0,0,0,0v-.7s0,0,0,0"/>
        </g>
      </g>
    </g>
    <g class="st6">
      <g class="st11">
        <g class="st6">
          <path d="M428.7,366.8v.7s0,0,0,0v-.7s0,0,0,0"/>
          <path d="M428.7,366.9v.7c0,0,0,.1,0,.2v-.7c0,0,0-.1,0-.2"/>
          <path d="M428.7,367.1v.7c0,0,0,.1,0,.2v-.7c0,0,0-.1,0-.2"/>
          <path d="M428.6,367.3v.7c0,0-.1.2-.2.3v-.7c0,0,.1-.2.2-.3"/>
          <path d="M428.4,367.5v.7c0,0-.2.2-.3.2s-.2.1-.3.2v-.7c.1,0,.2,0,.3-.2s.2-.2.3-.2"/>
          <path d="M427.8,368v.7c-.1,0-.3,0-.4.1v-.7c.1,0,.3,0,.4-.1"/>
          <path d="M427.4,368.1v.7s0,0-.1,0v-.7s0,0,.1,0"/>
        </g>
      </g>
    </g>
    <polygon points="406.7 371.1 406.7 371.8 366.9 283.6 366.9 282.8 406.7 371.1"/>
    <polygon points="427.3 368.1 427.3 368.8 409.1 372.7 409.1 372 427.3 368.1"/>
    <path d="M455.3,264.3l80.3,20.3c1,.3,1.5,1,1.2,1.7l-6.3,12.5c-.1.2-.3.4-.5.5-.5.3-1.3.5-2,.3l-80.4-20.2c-.7-.2-1.5,0-2,.3-5.3,6.4-11.2,11.8-18.2,16.5s-14.8,8.6-23.8,11.9c-1,.6-1.2,1.1-.9,1.6l25.7,56.9c.2.5,0,1-.5,1.4s-.5.2-.8.3l-18.2,3.9c-1,.2-2.1-.2-2.4-.9l-39.9-88.3c-.2-.5-.9-.9-1.7-.9-2-.1-4.2,0-6.2-.3-32.7-2.9-50.7-28.2-34.8-47.8.4-.5.3-1.2-.3-1.6l-14.6-10.7c-.7-.5-.7-1.4,0-1.9l13.9-9.4c.8-.5,2-.5,2.7,0l14.6,10.7c.6.4,1.5.5,2.3.3,26.6-9.6,59.3,1.2,66,22.2.9,2.7,1.1,5.5,1.1,8.3,0,.6.5,1.1,1.3,1.3l20.6,5.3c.8-1,1-3.3,1.1-4,1.8-13.1-5.2-27.1-18-36.9-.7-.5-.7-1.4,0-1.9l13.7-9.2c.8-.5,2-.5,2.7,0,20.1,14.9,28.8,36.6,22.9,56.5-.2.7.3,1.3,1.2,1.5ZM386.3,245.9c-4.5-12.2-25.9-16.1-38.3-7.7-.5.3-1,.7-1.5,1.1-11.9,9.6-3.2,25.1,14.9,26.5,7.3.6,13.9-1.2,18.6-4.4s8.4-9.5,6.2-15.5M422.8,274.8c.5-.7,0-1.6-1.1-1.9l-18.3-4.6c-.7-.2-1.5,0-2,.3s-.2.1-.2.2c-1.5,1.5-3.3,2.9-5.2,4.2s-4.3,2.6-6.6,3.7c0,0-.2,0-.2.1-.5.3-.7.9-.5,1.4l5.9,13c.4.8,1.6,1.2,2.7.8,5.7-1.9,10.6-4.2,14.9-7.1,4.3-2.9,7.8-6.2,10.6-10.1"/>
    <g class="st6">
      <g class="st9">
        <g class="st6">
          <path d="M409.1,372v.7c0,0-.1,0-.2,0v-.7c0,0,.1,0,.2,0"/>
          <path d="M408.9,372v.7c0,0-.2,0-.3,0v-.7c0,0,.2,0,.3,0"/>
          <path d="M408.7,372v.7c0,0-.2,0-.3,0v-.7c0,0,.2,0,.3,0"/>
          <path d="M408.4,372v.7c0,0-.2,0-.3,0v-.7c0,0,.2,0,.3,0"/>
          <path d="M408.1,372v.7c-.1,0-.2,0-.3,0v-.7c.1,0,.2,0,.3,0"/>
          <path d="M407.8,371.9v.7c-.5-.1-.9-.4-1.1-.8v-.7c.2.4.6.7,1.1.8"/>
        </g>
      </g>
    </g>
  </g>
</svg>